<?xml version="1.0" encoding="UTF-8"?>
<svg xmlns="http://www.w3.org/2000/svg" xmlns:xlink="http://www.w3.org/1999/xlink" width="512pt" height="512pt" viewBox="0 0 512 512" version="1.1">
<g id="surface86">
<path style=" stroke:none;fill-rule:nonzero;fill:rgb(50.196081%,0%,50.196081%);fill-opacity:1;" d="M 330.671875 263.121094 L 330.671875 173.398438 L 277.921875 149.179688 C 219.441406 218.761719 197.578125 400 56 400 C 25.070312 400 0 425.070312 0 456 C 0 486.929688 25.070312 512 56 512 C 268.640625 512 426.648438 389.128906 475.179688 301.660156 L 438.128906 263.121094 Z M 461.761719 134.75 C 493.921875 74.910156 477.179688 26.480469 458.621094 3 C 457.1875 1.222656 455.066406 0.144531 452.789062 0.03125 C 450.507812 -0.0820312 448.289062 0.785156 446.691406 2.410156 L 423.789062 25.410156 C 421.078125 28.164062 420.703125 32.457031 422.898438 35.640625 C 429.761719 46 439.949219 70.738281 421.5 107.960938 C 403.472656 100.078125 384.011719 96.007812 364.339844 96 C 336.339844 96 310.339844 104.539062 288 118.589844 L 362.671875 152.878906 L 362.671875 231.121094 L 451.761719 231.121094 L 506.441406 288 C 509.699219 275.378906 512 262.371094 512 248.691406 C 512.039062 205.332031 493.800781 163.964844 461.761719 134.75 Z M 461.761719 134.75 "/>
</g>
</svg>
